<svg width="31" height="21" viewBox="0 0 31 21" fill="none" xmlns="http://www.w3.org/2000/svg">
<path d="M16.2431 20.9997C12.7186 20.9997 8.88005 20.8947 4.83664 20.6873C2.44834 20.564 0.59511 18.821 0.330941 16.4481C-0.110314 12.494 -0.110314 8.50495 0.330941 4.55082C0.59511 2.19761 2.44564 0.454681 4.8326 0.311624C11.9381 -0.103875 19.0628 -0.103875 26.1683 0.311624C28.5809 0.450743 30.391 2.15298 30.67 4.54951C31.1093 8.34247 31.1107 12.3441 30.67 16.4455C30.4166 18.8171 28.6092 20.522 26.1737 20.6873C22.8682 20.9023 19.556 21.0065 16.2431 20.9997ZM15.4196 1.12665C11.9059 1.12665 8.36923 1.23165 4.90673 1.4377C3.08315 1.54663 1.72052 2.84595 1.51701 4.67025C1.08479 8.545 1.08479 12.4539 1.51701 16.3287C1.72052 18.1687 3.08046 19.4681 4.90134 19.5626C8.92318 19.7673 12.7402 19.8723 16.2431 19.8723C19.7406 19.8723 23.0535 19.7673 26.0901 19.5626C27.9272 19.4379 29.2925 18.1399 29.4866 16.3313C29.9179 12.3087 29.9179 8.38709 29.4866 4.67288C29.2736 2.84202 27.911 1.5427 26.0969 1.4377C22.5417 1.23176 18.981 1.12804 15.4196 1.12665ZM12.4679 6.50767V14.2432L20.3161 10.4017L12.4692 6.50636L12.4679 6.50767Z" fill="#9AA199"/>
</svg>
