<svg width="31" height="23" viewBox="0 0 31 23" fill="none" xmlns="http://www.w3.org/2000/svg">
<path d="M22.683 0.00229915H0V23H6.31343V15.518H18.4109L23.9305 23H31L24.9134 15.4836C26.4972 15.3608 27.965 14.6542 28.9965 13.5182C29.9473 12.0492 30.3838 10.3366 30.2439 8.62216V6.89824C30.2723 5.83875 30.1321 4.78116 29.8281 3.7605C29.5597 2.9674 29.093 2.24619 28.4672 1.6573C27.7955 1.07486 26.9951 0.639209 26.1232 0.381555C25.0002 0.108531 23.8428 -0.0190638 22.683 0.00229915ZM21.6623 10.4496H6.31343V5.07069H21.6623C22.2825 5.01427 22.9056 5.14726 23.4391 5.45005C23.6189 5.62783 23.7558 5.84011 23.8406 6.07213C23.9254 6.30416 23.9561 6.55053 23.9305 6.79474V8.72566C23.9591 8.97514 23.93 9.2276 23.8452 9.46558C23.7604 9.7037 23.6219 9.92166 23.4391 10.1047C22.9002 10.3928 22.2785 10.5134 21.6623 10.4496Z" fill="#9AA199"/>
</svg>
