<svg width="24" height="24" viewBox="0 0 24 24" fill="none" xmlns="http://www.w3.org/2000/svg">
<path fill-rule="evenodd" clip-rule="evenodd" d="M17.4613 12.7053C19.6107 12.2747 21.8133 12.2053 24 12.1827C23.968 14.9387 24.1333 17.7733 23.324 20.444C23.1256 21.1201 22.7621 21.7362 22.2664 22.2368C21.7706 22.7375 21.1581 23.107 20.484 23.312C17.8013 24.1387 14.9507 23.9493 12.1787 23.9933C12.3067 21.484 12.1787 18.896 12.9987 16.484C13.6627 14.5293 15.4573 13.0933 17.4613 12.7053ZM0.00667771 12.1787C2.05334 12.192 4.10934 12.2893 6.13201 12.6187C8.12934 12.9253 10.0653 14.152 10.8533 16.068C11.9027 18.5747 11.6413 21.352 11.8587 24C9.46534 23.9733 7.04534 24.056 4.67734 23.6173C3.33334 23.36 1.90668 22.7693 1.20001 21.524C0.284011 19.9053 0.182678 17.996 0.0760111 16.18C0.0600111 14.8453 -0.0239889 13.5133 0.00667771 12.18V12.1787ZM12.1853 0.00533358C14.9507 0.0493336 17.7987 -0.144 20.476 0.685333C21.1529 0.887842 21.7683 1.25683 22.2658 1.75855C22.7634 2.26027 23.1272 2.87872 23.324 3.55733C24.132 6.22667 23.968 9.06133 24 11.8173C21.6973 11.8013 19.3627 11.7613 17.1173 11.2133C15.1787 10.7493 13.5427 9.24933 12.94 7.34533C12.1933 4.972 12.3213 2.45733 12.1853 0.00533358ZM3.89868 0.572C6.48801 -0.112 9.19868 0.048 11.8507 0C11.6947 2.51067 11.8427 5.09867 11.0133 7.51067C10.6881 8.42354 10.1404 9.24097 9.41992 9.88907C8.69942 10.5372 7.82878 10.9955 6.88667 11.2227C4.63734 11.7587 2.30668 11.8027 0.00667771 11.8187C0.080011 9.01467 -0.119989 6.12 0.760011 3.41333C1.19601 1.968 2.46134 0.922667 3.89868 0.572Z" fill="#9AA199"/>
</svg>
