<svg width="26" height="22" viewBox="0 0 26 22" fill="none" xmlns="http://www.w3.org/2000/svg">
<path d="M23.7833 0.194223C23.7833 0.194223 26.1886 -0.758067 25.9881 1.55464C25.9213 2.50693 25.3201 5.83998 24.8523 9.44501L23.2489 20.1243C23.2489 20.1243 23.1153 21.6888 21.9126 21.9608C20.71 22.2329 18.9061 21.0086 18.572 20.7365C18.3049 20.5324 13.5613 17.4715 11.8911 15.975C11.4233 15.5668 10.8889 14.7506 11.9578 13.7983L18.973 6.99627C19.7747 6.18007 20.5765 4.27552 17.2359 6.58824L7.88241 13.0502C7.88241 13.0502 6.81342 13.7304 4.80914 13.1182L0.466401 11.7577C0.466401 11.7577 -1.13706 10.7374 1.60218 9.71716C8.28333 6.52017 16.501 3.2551 23.7833 0.194223Z" fill="#9AA199"/>
</svg>
