<svg width="15" height="25" viewBox="0 0 15 25" fill="none" xmlns="http://www.w3.org/2000/svg">
<path d="M6.27038 17.6081C4.33385 17.406 2.58769 16.9286 1.09276 15.7583C0.907387 15.6128 0.715838 15.4724 0.546507 15.3097C-0.107812 14.6807 -0.173678 13.9604 0.344045 13.218C0.786962 12.5827 1.53055 12.4128 2.30332 12.7776C2.45306 12.8483 2.59558 12.9366 2.73217 13.0313C5.51825 14.9473 9.34556 15.0002 12.142 13.1175C12.419 12.9048 12.7152 12.7315 13.0585 12.643C13.7258 12.4715 14.3483 12.7168 14.7065 13.3013C15.1156 13.9689 15.1105 14.6203 14.6063 15.1385C13.8328 15.9331 12.9028 16.5078 11.8694 16.9089C10.8923 17.2881 9.82187 17.4791 8.76263 17.6058C8.9225 17.7799 8.99783 17.8655 9.09775 17.9661C10.5361 19.4126 11.9809 20.8531 13.4145 22.3041C13.9031 22.7985 14.0051 23.4115 13.7361 23.9866C13.442 24.615 12.7837 25.0285 12.1384 24.9842C11.7295 24.956 11.4105 24.7521 11.1272 24.4664C10.0417 23.3732 8.93578 22.3001 7.87233 21.1861C7.56285 20.8623 7.4139 20.9235 7.14084 21.2048C6.04873 22.33 4.939 23.438 3.82257 24.5396C3.32128 25.0342 2.72481 25.1232 2.14345 24.8407C1.52555 24.5409 1.13233 23.9096 1.1627 23.2751C1.1836 22.8458 1.39448 22.518 1.68884 22.2239C3.11225 20.8012 4.53184 19.3748 5.95197 17.9499C6.04584 17.855 6.13352 17.7545 6.27038 17.6081Z" fill="#B8B5BC"/>
<path d="M7.44874 12.6555C3.99401 12.6436 1.16112 9.77703 1.18124 6.31366C1.20122 2.81214 4.03581 -0.00965993 7.52459 2.48551e-05C11.0205 0.00944647 13.8264 2.87184 13.8088 6.40985C13.791 9.86611 10.9386 12.6675 7.44874 12.6555ZM10.5885 6.32208C10.5826 4.60251 9.21423 3.23347 7.49948 3.2319C5.77041 3.23006 4.38986 4.62396 4.40314 6.35932C4.41602 8.07232 5.79605 9.43174 7.51552 9.42543C9.22961 9.41937 10.5943 8.04153 10.5885 6.32208Z" fill="#B8B5BC"/>
</svg>
